<?xml version="1.0" encoding="utf-8"?>
<!-- Generator: Adobe Illustrator 25.3.1, SVG Export Plug-In . SVG Version: 6.00 Build 0)  -->
<svg version="1.1" id="Layer_1" xmlns="http://www.w3.org/2000/svg" xmlns:xlink="http://www.w3.org/1999/xlink" x="0px" y="0px"
	 viewBox="0 0 1224 792" style="enable-background:new 0 0 1224 792;" xml:space="preserve">
<style type="text/css">
	.st0{fill:#6077BA;}
	.st1{fill:#5F77BA;}
</style>
<g>
	<path class="st0" d="M103.42,324.52l-45.39-159.6h40.64c9.38,36.85,25.42,95.96,29.02,124.75h0.23
		c5.25-29.41,21.68-87.64,32.51-124.75h36.87c10.04,35.11,27.78,100.25,32.12,123.53h0.43c4.64-29.08,20.24-87.77,29.48-123.53
		h38.96l-48.25,159.6h-41.91c-10.24-35.2-26.52-95.96-31.72-118.91h-0.23c-4.82,27.14-19.8,79.76-31.11,118.91H103.42z"/>
	<path class="st0" d="M420.49,291.71c0,15.22,0.68,30.3,0.93,32.82h-34.98c-0.91-2.79-1.16-9.94-1.36-13.22
		c-6.29,10.12-19.78,16.4-41.79,16.4c-32.03,0-44.96-19.52-44.96-38.23c0-30.75,26.91-39.28,61.43-39.28c9.16,0,20.47,0,24.53,0
		v-3.69c0-9.49-4.12-17.15-21.31-17.15c-16,0-19.53,6-21.05,12.7H304.9c0.99-14.44,11.19-37.8,57.51-37.8
		c50.85,0,58.08,23.94,58.08,43.52V291.71z M384.29,273.61c-2.68-0.2-10.76-0.2-23.87-0.2c-18.82,0-26.23,4.95-26.23,14.18
		c0,7.61,6.15,13.78,19.58,13.78c20.3,0,30.51-9.3,30.51-25.95V273.61z"/>
	<path class="st0" d="M437.7,207.43h21v-34.51h37.23v34.51h27.11v26.89h-27.11v49.33c0,9.97,2.08,14.55,13.43,14.55
		c3.2,0,6.82-0.03,10.02-0.73v25.39c-6.33,1.81-14.85,2.61-23.48,2.61c-28.83,0-37.19-12.51-37.19-35.34v-55.79h-21V207.43z"/>
	<path class="st0" d="M573.35,274.98c0.96,14.15,11.23,25.2,28.76,25.2c13.98,0,20.58-4.28,24.84-11.46h37.03
		c-7.06,20.74-24.67,38.98-62.26,38.98c-47.94,0-65.23-31.8-65.23-61.57c0-32.98,22.17-61.87,64.95-61.87
		c45.57,0,63.95,31.38,63.95,61.88c0,2.96,0,5.09-0.2,8.84H573.35z M627.84,252.3c-0.73-8.93-5.56-22.13-26.42-22.13
		c-19.45,0-26.52,10.61-27.61,22.13H627.84z"/>
	<path class="st0" d="M689.35,239.24c0-10.6,0-21.22-0.23-31.82h36.18c0.63,4.14,1.08,17.1,1.08,23.4
		c6.53-15.42,20.85-26.97,45.14-26.38v33.69c-26.49-0.43-45.14,10.2-45.14,43.6v42.78h-37.03V239.24z"/>
	<path class="st0" d="M806.52,324.52v-90.2h-19.84v-26.89h19.84v-10c0-28.66,14.7-43.24,44.62-43.24c5.67,0,11.37,0.25,15.08,1.16
		v27.2c-2.03-0.31-4.85-0.36-7.22-0.36c-12.04,0-15.25,4.34-15.25,15.26v9.99h24.14v26.89h-24.14v90.2H806.52z"/>
	<path class="st0" d="M1000.83,291.71c0,15.22,0.68,30.3,0.93,32.82h-34.98c-0.91-2.79-1.16-9.94-1.36-13.22
		c-6.29,10.12-19.78,16.4-41.79,16.4c-32.03,0-44.96-19.52-44.96-38.23c0-30.75,26.91-39.28,61.43-39.28c9.16,0,20.47,0,24.53,0
		v-3.69c0-9.49-4.12-17.15-21.3-17.15c-16,0-19.53,6-21.05,12.7h-37.03c0.99-14.44,11.19-37.8,57.51-37.8
		c50.85,0,58.08,23.94,58.08,43.52V291.71z M964.62,273.61c-2.68-0.2-10.76-0.2-23.87-0.2c-18.82,0-26.22,4.95-26.22,14.18
		c0,7.61,6.15,13.78,19.58,13.78c20.3,0,30.51-9.3,30.51-25.95V273.61z"/>
	<path class="st0" d="M1032.46,324.52V155.8h37.03v168.72H1032.46z"/>
	<path class="st0" d="M1101.8,324.52V155.8h37.03v168.72H1101.8z"/>
	<path class="st0" d="M76.67,436.85h72.15c53.78,0,83.2,34.91,83.2,77.01c0,51.09-37.57,82.59-84.03,82.59H76.67V436.85z
		 M115.4,566.43h27.49c31.22,0,48.1-17.59,48.1-51.52c0-29.53-15.44-47.84-47.6-48.24H115.4V566.43z"/>
	<path class="st0" d="M290.54,546.91c0.96,14.14,11.23,25.2,28.76,25.2c13.98,0,20.58-4.28,24.84-11.46h37.03
		c-7.06,20.74-24.67,38.98-62.26,38.98c-47.94,0-65.23-31.8-65.23-61.57c0-32.98,22.17-61.87,64.95-61.87
		c45.57,0,63.95,31.38,63.95,61.88c0,2.96,0,5.09-0.2,8.84H290.54z M345.02,524.23c-0.73-8.94-5.56-22.13-26.42-22.13
		c-19.45,0-26.52,10.61-27.61,22.13H345.02z"/>
	<path class="st0" d="M406.12,596.45V427.73h37.03v168.72H406.12z"/>
	<path class="st0" d="M474.75,427.73h37.03v29.58h-37.03V427.73z M474.75,479.36h37.03v117.09h-37.03V479.36z"/>
</g>
<g>
	<g>
		<path class="st1" d="M596.63,475.71c25.95-14.04,55.89-20.87,84.99-24.36c32.81-3.93,66.51-3.77,99.15,1.6
			c34.14,5.61,66.41,18.23,99.72,27.15c17.47,4.68,35.27,8.15,53.32,9.5c19.33,1.44,38.76,0.26,57.89-2.78
			c36.75-5.82,70.92-19.72,104.03-36.26c3.89-1.94,7.77-3.91,11.64-5.87c5.61-2.84,0.67-11.28-4.93-8.44
			c-15.85,8.03-31.73,16.05-48.2,22.73c-17.21,6.98-34.96,12.54-53.16,16.25c-18.66,3.8-37.72,5.66-56.76,5.13
			c-18.16-0.5-36.09-3.4-53.7-7.75c-33.66-8.31-66.01-21.36-100.15-27.84c-32.79-6.22-66.63-7.3-99.83-4.17
			c-30.81,2.91-61.94,9.18-90.16,22.26c-2.97,1.38-5.89,2.84-8.77,4.4C586.16,470.26,591.09,478.7,596.63,475.71L596.63,475.71z"/>
	</g>
</g>
<g>
	<g>
		<path class="st1" d="M596.63,520.58c25.95-14.04,55.89-20.87,84.99-24.36c32.81-3.93,66.51-3.77,99.15,1.6
			c34.14,5.61,66.41,18.23,99.72,27.15c17.47,4.68,35.27,8.15,53.32,9.5c19.33,1.44,38.76,0.26,57.89-2.78
			c36.75-5.82,70.92-19.72,104.03-36.26c3.89-1.94,7.77-3.91,11.64-5.87c5.61-2.84,0.67-11.28-4.93-8.44
			c-15.85,8.03-31.73,16.05-48.2,22.73c-17.21,6.98-34.96,12.54-53.16,16.25c-18.66,3.8-37.72,5.66-56.76,5.13
			c-18.16-0.5-36.09-3.4-53.7-7.75c-33.66-8.31-66.01-21.36-100.15-27.84c-32.79-6.22-66.63-7.3-99.83-4.17
			c-30.81,2.91-61.94,9.18-90.16,22.26c-2.97,1.38-5.89,2.84-8.77,4.4C586.16,515.13,591.09,523.57,596.63,520.58L596.63,520.58z"/>
	</g>
</g>
<path class="st0" d="M614.37,423.73h470.32c17.04,0,26.4-8.91,15.58-14.83l-63.14-34.53c-3.83-2.1-9.55-3.31-15.58-3.31H677.51
	c-6.03,0-11.75,1.21-15.58,3.31l-63.14,34.53C587.97,414.82,597.33,423.73,614.37,423.73z"/>
<path class="st0" d="M1084.69,546.95H614.37c-17.04,0-26.4,8.91-15.58,14.83l63.14,34.53c3.83,2.1,9.55,3.31,15.58,3.31h344.04
	c6.03,0,11.75-1.21,15.58-3.31l63.14-34.53C1111.09,555.86,1101.73,546.95,1084.69,546.95z"/>
</svg>
