<?xml version="1.0" encoding="utf-8"?>
<!-- Generator: Adobe Illustrator 25.3.1, SVG Export Plug-In . SVG Version: 6.00 Build 0)  -->
<svg version="1.1" id="Layer_1" xmlns="http://www.w3.org/2000/svg" xmlns:xlink="http://www.w3.org/1999/xlink" x="0px" y="0px"
	 viewBox="0 0 1223.99 772.8" style="enable-background:new 0 0 1223.99 772.8;" xml:space="preserve">
<style type="text/css">
	.st0{fill:#6077BA;}
</style>
<path class="st0" d="M975.59,454.7h-851.2c-10.6,0-19.9-7.2-22.4-17.5L0.69,28.6C-2.91,14,8.09,0,23.09,0h952.5
	c12.8,0,23.1,10.4,23.1,23.1v408.5C998.79,444.3,988.39,454.7,975.59,454.7z"/>
<path class="st0" d="M1223.99,30.3L1223.99,30.3c0,17.8-14.4,32.2-32.2,32.2h-53.2c-8.2,0-14.8,6.7-14.8,14.8v467.2
	c0,16.3-13.2,29.6-29.6,29.6h-941.5c-6.7,0-12.5-4.5-14.3-10.9l-9-32.8c-2.6-9.5,4.5-18.8,14.3-18.8h902.7c8.2,0,14.8-6.7,14.8-14.8
	V29.4c0-16.2,13.2-29.4,29.4-29.4h102.9C1210.39,0,1223.99,13.5,1223.99,30.3z"/>
<circle class="st0" cx="290.79" cy="689.5" r="83.3"/>
<circle class="st0" cx="915.39" cy="689.5" r="83.3"/>
</svg>
