<?xml version="1.0" encoding="utf-8"?>
<!-- Generator: Adobe Illustrator 25.3.1, SVG Export Plug-In . SVG Version: 6.00 Build 0)  -->
<svg version="1.1" id="Layer_1" xmlns="http://www.w3.org/2000/svg" xmlns:xlink="http://www.w3.org/1999/xlink" x="0px" y="0px"
	 viewBox="0 0 851.62 792.01" style="enable-background:new 0 0 851.62 792.01;" xml:space="preserve">
<style type="text/css">
	.st0{fill:#6077BA;}
</style>
<path class="st0" d="M836.04,469.72H260.82c-13.88,0-20.83,16.78-11.02,26.6l186.86,186.85c6.09,6.09,6.09,15.95,0,22.04
	l-82.23,82.23c-6.09,6.09-15.95,6.09-22.04,0L4.56,459.59C1.64,456.67,0,452.7,0,448.57V343.43c0-4.13,1.64-8.1,4.56-11.02
	L332.41,4.56c6.08-6.08,15.95-6.09,22.04,0l82.23,82.21c6.09,6.09,6.09,15.95,0,22.04L249.8,295.68c-9.82,9.82-2.86,26.6,11.02,26.6
	h575.22c8.61,0,15.58,6.98,15.58,15.58v116.28C851.62,462.74,844.64,469.72,836.04,469.72z"/>
</svg>
