<?xml version="1.0" encoding="utf-8"?>
<!-- Generator: Adobe Illustrator 25.3.1, SVG Export Plug-In . SVG Version: 6.00 Build 0)  -->
<svg version="1.1" id="Layer_1" xmlns="http://www.w3.org/2000/svg" xmlns:xlink="http://www.w3.org/1999/xlink" x="0px" y="0px"
	 viewBox="0 0 1224 772.8" style="enable-background:new 0 0 1224 772.8;" xml:space="preserve">
<style type="text/css">
	.st0{fill:#2D2D54;}
	.st1{fill:url(#SVGID_1_);}
</style>
<path class="st0" d="M975.6,454.7H124.4c-10.6,0-19.9-7.2-22.4-17.5L0.7,28.6C-2.9,14,8.1,0,23.1,0h952.5
	c12.8,0,23.1,10.4,23.1,23.1v408.5C998.8,444.3,988.4,454.7,975.6,454.7z"/>
<path class="st0" d="M1224,30.3L1224,30.3c0,17.8-14.4,32.2-32.2,32.2h-53.2c-8.2,0-14.8,6.7-14.8,14.8v467.2
	c0,16.3-13.2,29.6-29.6,29.6H152.7c-6.7,0-12.5-4.5-14.3-10.9l-9-32.8c-2.6-9.5,4.5-18.8,14.3-18.8h902.7c8.2,0,14.8-6.7,14.8-14.8
	V29.4c0-16.2,13.2-29.4,29.4-29.4h102.9C1210.4,0,1224,13.5,1224,30.3z"/>
<circle class="st0" cx="290.8" cy="689.5" r="83.3"/>
<circle class="st0" cx="915.4" cy="689.5" r="83.3"/>
<linearGradient id="SVGID_1_" gradientUnits="userSpaceOnUse" x1="1080.5" y1="774" x2="1080.5" y2="487" gradientTransform="matrix(1 0 0 -1 0 774)">
	<stop  offset="0" style="stop-color:#FBE2B7"/>
	<stop  offset="1" style="stop-color:#F6C16B"/>
</linearGradient>
<circle class="st1" cx="1080.5" cy="143.5" r="143.5"/>
</svg>
